<svg id="Layer_1" data-name="Layer 1" xmlns="http://www.w3.org/2000/svg" viewBox="0 0 595.28 556.36"><defs><style>.cls-1{fill:#fff;}</style></defs><title>Be-Okay emile&amp;apos;s</title><path class="cls-1" d="M288.94,116.16c33.33-30.25,69.91-49.48,116.43-47.08C461.42,72,515.7,122.48,520.52,178.8c3.16,36.94-2.16,72.17-18.58,105.79A554.23,554.23,0,0,1,381.65,447c-8.43,7.88-17.56,14.82-28.27,19.43-29.32,12.63-56.34-3.72-58-35.52-4.4-83.62,33-149.22,89.68-206.33,9.74-9.81,18.31-6.64,25.62,3.51,8.66,12,7.9,26.13,8.25,44.27,21.8-30.69,32.49-60.66,32.94-94.68.37-27.69,3.43-32.75,23-47.67-43.34-52.65-114.49-51.69-168.65,2.93,12.09,15.41,24.64,30.76,30.18,50.35,7.3,25.75.17,49.64-19.43,63A51,51,0,0,1,257.54,245c-19.53-14.69-25.6-37.71-16.71-63.58,6.19-18,18.27-32.53,29.25-47.48C224.81,79,144.64,77,101.24,130.42c20.88,9.65,23.28,28.1,23.68,48.29.63,32.5,10.45,62.14,31.49,90.91,2.42-14.69,1.67-26.94,7.55-37.72,8.17-15,18.54-17.45,30-5.41,52,54.53,89.7,115.59,87.42,194.68-.52,18.33-2.78,36-20.67,45.22-17.26,8.88-34.67,4.24-49.36-6.9-54-41-93.06-94.6-125.78-153.09C67.47,274,54.26,240.07,53.87,201.74,53.34,148.71,76,109,121.41,84,166,59.3,211.14,64.18,254,90.53,265.75,97.76,276.36,106.86,288.94,116.16ZM95.61,153.63C84.1,155.57,82.08,164.17,80,172.24c-7,27.3-4,54.17,5.88,80.06,23.68,62.05,62.29,114.33,107.89,161.86,11.34,11.82,23,23.27,38,30.49,15.13,7.3,25.59,2,26.6-14.42,4.42-71.8-25.69-129.32-75.76-181.62-5.86,31.36,24.21,47.58,24.88,73.52-10.15,15-20.67,9.27-31,1.35-47-36.12-71.31-84.07-74.31-143.06C101.76,171.45,103.17,162.11,95.61,153.63Zm298.81,93.7c-41.86,46.91-74.05,94.51-75.33,157.15-.3,14.78-6.28,33.54,9.2,41.44s28.19-6.94,38.88-17a534.35,534.35,0,0,0,108.2-142.27c17.15-32.71,28.2-66.86,22.91-104.37-1.59-11.32-1.73-24.39-17.34-29.1-8.13,10.35-6.56,22.41-7,33.36-1.61,41-18.14,76-42.53,107.78-10.36,13.52-23.67,24.17-37.83,33.6-6.59,4.39-13.64,5.33-20-.43-6.09-5.49-4.32-12.32-1.52-18.41,3.27-7.11,7.61-13.73,11.51-20.55C390.11,277.08,398.41,266.19,394.42,247.33ZM288.27,149.26c-12.3,12.94-21.69,26.52-27,42.89-4.48,13.67-1.56,25.15,9.52,34,10.64,8.51,22.4,8.64,33.5,1,11.86-8.19,14.81-20.39,11.34-33.67C311.11,176.36,302.17,161.7,288.27,149.26Z"/></svg>