<svg id="Layer_1" data-name="Layer 1" xmlns="http://www.w3.org/2000/svg" viewBox="0 0 595.28 556.36"><defs><style>.cls-1,.cls-2,.cls-7{fill:#fff;}.cls-2{font-size:30.23px;font-family:Lato-Regular, Lato;}.cls-3{letter-spacing:-0.01em;}.cls-4{letter-spacing:-0.02em;}.cls-5{letter-spacing:-0.01em;}.cls-6{letter-spacing:-0.02em;}.cls-7{font-size:65.46px;font-family:LucytheCat-Regular, Lucy the Cat;}</style></defs><title>Be-Okay emile&amp;apos;s</title><path class="cls-1" d="M295.91,77.77C323.13,53.05,353,37.35,391,39.31c45.78,2.36,90.13,43.62,94.06,89.62,2.58,30.17-1.76,58.95-15.18,86.41A452.46,452.46,0,0,1,371.63,348c-6.88,6.44-14.34,12.11-23.08,15.87-23.95,10.32-46-3-47.39-29-3.59-68.31,27-121.89,73.26-168.54,7.95-8,14.95-5.42,20.92,2.87,7.08,9.83,6.46,21.34,6.74,36.16C419.89,180.27,428.62,155.79,429,128c.3-22.61,2.8-26.75,18.82-38.94-35.41-43-93.52-42.22-137.77,2.39,9.88,12.6,20.13,25.13,24.66,41.13,6,21,.14,40.55-15.87,51.48a41.68,41.68,0,0,1-48.57-1.1c-15.95-12-20.91-30.8-13.65-51.93,5.06-14.73,14.93-26.57,23.89-38.78-37-44.84-102.46-46.51-137.91-2.84,17,7.89,19,23,19.34,39.45.52,26.55,8.54,50.76,25.72,74.26,2-12,1.37-22,6.17-30.81,6.67-12.23,15.15-14.26,24.52-4.42,42.47,44.54,73.27,94.42,71.41,159-.43,15-2.27,29.41-16.88,36.93-14.1,7.26-28.33,3.47-40.32-5.63-44.13-33.48-76-77.27-102.74-125C115,206.68,104.22,179,103.9,147.67c-.44-43.32,18.11-75.73,55.16-96.22,36.4-20.13,73.3-16.15,108.29,5.38C277,62.74,285.64,70.17,295.91,77.77ZM138,108.37c-9.41,1.59-11.06,8.61-12.76,15.2-5.76,22.3-3.26,44.25,4.8,65.39,19.35,50.69,50.88,93.4,88.13,132.22,9.27,9.66,18.81,19,31,24.91s20.9,1.63,21.73-11.78c3.61-58.65-21-105.63-61.88-148.36-4.79,25.62,19.77,38.87,20.32,60.06-8.29,12.22-16.88,7.57-25.29,1.11-38.36-29.51-58.25-68.68-60.7-116.86C143,122.93,144.17,115.3,138,108.37Zm244.08,76.54c-34.2,38.31-60.49,77.2-61.53,128.36-.25,12.07-5.13,27.4,7.51,33.85s23-5.67,31.76-13.87A436.6,436.6,0,0,0,448.2,217c14-26.73,23-54.62,18.71-85.26-1.31-9.24-1.42-19.92-14.17-23.76-6.64,8.45-5.35,18.3-5.7,27.24-1.31,33.53-14.82,62.07-34.74,88-8.46,11-19.34,19.74-30.9,27.45-5.38,3.58-11.14,4.35-16.37-.36-5-4.48-3.53-10.06-1.24-15,2.67-5.81,6.22-11.22,9.4-16.79C378.55,209.21,385.33,200.31,382.07,184.91ZM295.36,104.8c-10.05,10.57-17.72,21.67-22.09,35C269.61,151,272,160.38,281,167.61c8.69,6.95,18.3,7.06,27.37.8,9.68-6.69,12.09-16.66,9.26-27.5A71.74,71.74,0,0,0,295.36,104.8Z"/><text class="cls-2" transform="translate(221.62 503.89)"><tspan class="cls-3">B</tspan><tspan x="19.32" y="0">e </tspan><tspan class="cls-4" x="43.02" y="0">H</tspan><tspan x="65.63" y="0">ealt</tspan><tspan class="cls-5" x="114.59" y="0">h</tspan><tspan class="cls-6" x="131.08" y="0">y</tspan></text><text class="cls-7" transform="translate(172.3 455.18)">Be Okay</text></svg>