<svg width="64" height="64" viewBox="0 0 64 64" fill="none" xmlns="http://www.w3.org/2000/svg">
<circle cx="32" cy="32" r="32" fill="#D9F4BD"/>
<path d="M43 28V30H44V34C44 34.7956 43.6839 35.5587 43.1213 36.1213C42.5587 36.6839 41.7957 37 41 37C40.2044 37 39.4413 36.6839 38.8787 36.1213C38.3161 35.5587 38 34.7956 38 34V30H39V28H36V34C36.0015 35.1521 36.4002 36.2684 37.1288 37.1608C37.8575 38.0532 38.8715 38.6671 40 38.899V40C40 41.0609 39.5786 42.0783 38.8284 42.8284C38.0783 43.5786 37.0609 44 36 44C34.9391 44 33.9217 43.5786 33.1716 42.8284C32.4214 42.0783 32 41.0609 32 40V37.816C32.6672 37.5801 33.2296 37.1159 33.5876 36.5055C33.9457 35.8951 34.0765 35.1778 33.9568 34.4803C33.8371 33.7828 33.4747 33.15 32.9337 32.6939C32.3926 32.2378 31.7077 31.9876 31 31.9876C30.2923 31.9876 29.6074 32.2378 29.0663 32.6939C28.5253 33.15 28.1629 33.7828 28.0432 34.4803C27.9235 35.1778 28.0543 35.8951 28.4124 36.5055C28.7705 37.1159 29.3328 37.5801 30 37.816V40C30 41.5913 30.6321 43.1174 31.7574 44.2426C32.8826 45.3679 34.4087 46 36 46C37.5913 46 39.1174 45.3679 40.2426 44.2426C41.3679 43.1174 42 41.5913 42 40V38.899C43.1285 38.6671 44.1426 38.0532 44.8712 37.1608C45.5998 36.2684 45.9985 35.1521 46 34V28H43ZM31 34C31.1978 34 31.3911 34.0586 31.5556 34.1685C31.72 34.2784 31.8482 34.4346 31.9239 34.6173C31.9996 34.8 32.0194 35.0011 31.9808 35.1951C31.9422 35.3891 31.847 35.5673 31.7071 35.7071C31.5673 35.847 31.3891 35.9422 31.1951 35.9808C31.0011 36.0194 30.8 35.9996 30.6173 35.9239C30.4346 35.8482 30.2784 35.72 30.1685 35.5556C30.0587 35.3911 30 35.1978 30 35C30 34.7348 30.1054 34.4804 30.2929 34.2929C30.4804 34.1054 30.7348 34 31 34Z" fill="black"/>
<path d="M42 20H38V18H36V20H28V18H26V20H22C21.4696 20 20.9609 20.2107 20.5858 20.5858C20.2107 20.9609 20 21.4696 20 22V42C20 42.5304 20.2107 43.0391 20.5858 43.4142C20.9609 43.7893 21.4696 44 22 44H26V42H22V22H26V24H28V22H36V24H38V22H42V26H44V22C44 21.4696 43.7893 20.9609 43.4142 20.5858C43.0391 20.2107 42.5304 20 42 20Z" fill="black"/>
</svg>
